PathFileType	4	(X/Y/Z)	C:/Users/opensim2020/Desktop/walking_exp_matlab/subject03_walking08_straight_03.trc	
DataRate	CameraRate	NumFrames	NumMarkers	Units	OrigDataRate	OrigDataStartFrame	OrigNumFrames	
100.00	100.00	4	51	mm	100.00	2581	299	
Frame#	Time	LFHD			RFHD			LBHD			RBHD			C7			T10			CLAV			STRN			RBAK			LSHO			LUPA			LELB			LFRM			LWRA			LWRB			LFIN			RSHO			RUPA			RELB			RFRM			RWRA			RWRB			RFIN			LASI			RASI			LPSI			RPSI			LTHI			LKNE			LTIB			LANK			LHEE			LTOE			RTHI			RKNE			RTIB			RANK			RHEE			RTOE			*39			*40			*41			*42			*43			*44			*45			*46			*47			*48			*49			*50			
		X1	Y1	Z1	X2	Y2	Z2	X3	Y3	Z3	X4	Y4	Z4	X5	Y5	Z5	X6	Y6	Z6	X7	Y7	Z7	X8	Y8	Z8	X9	Y9	Z9	X10	Y10	Z10	X11	Y11	Z11	X12	Y12	Z12	X13	Y13	Z13	X14	Y14	Z14	X15	Y15	Z15	X16	Y16	Z16	X17	Y17	Z17	X18	Y18	Z18	X19	Y19	Z19	X20	Y20	Z20	X21	Y21	Z21	X22	Y22	Z22	X23	Y23	Z23	X24	Y24	Z24	X25	Y25	Z25	X26	Y26	Z26	X27	Y27	Z27	X28	Y28	Z28	X29	Y29	Z29	X30	Y30	Z30	X31	Y31	Z31	X32	Y32	Z32	X33	Y33	Z33	X34	Y34	Z34	X35	Y35	Z35	X36	Y36	Z36	X37	Y37	Z37	X38	Y38	Z38	X39	Y39	Z39	X40	Y40	Z40	X41	Y41	Z41	X42	Y42	Z42	X43	Y43	Z43	X44	Y44	Z44	X45	Y45	Z45	X46	Y46	Z46	X47	Y47	Z47	X48	Y48	Z48	X49	Y49	Z49	X50	Y50	Z50	X51	Y51	Z51	

150	1.490	-1093.40747	173.73897	1596.37012	-961.73291	160.48372	1608.42285	-1100.74829	40.99018	1571.34045	-970.26813	33.17487	1582.24023	-1034.25232	-7.57859	1407.86511	-1025.52649	-41.50583	1092.73718	-1027.31238	111.94988	1329.04993	-1023.00592	157.74339	1165.08923	-932.97943	-64.65903	1233.40137	-1186.94751	70.04971	1359.57837	-1247.68726	34.65299	1159.82520	-1253.49585	20.76450	1036.18542	-1246.45068	26.09398	905.55383	-1209.87244	25.00428	788.39648	-1261.22900	2.90066	793.86896	-1245.68787	1.57532	710.03314	-869.60767	65.43741	1356.74182	-796.90765	95.80301	1136.13110	-787.53180	131.41162	1028.47229	-794.37903	177.53746	899.58539	-838.47803	223.33456	815.29572	-791.56396	199.63423	801.93231	-806.54047	240.01746	742.03064	-1125.13049	134.94266	929.98486	-890.10510	111.51374	924.81653	-1094.60754	-32.54824	954.52588	-944.41620	-43.79671	960.90430	-1168.60266	129.96155	632.90479	-1122.47180	173.37352	462.26312	-1127.06824	169.55418	270.12488	-1088.17017	204.92789	63.19412	-1052.16724	167.36154	28.52638	-1057.80420	357.28970	33.64132	-857.60022	8.51421	635.40417	-888.30078	-14.17626	456.55850	-892.64331	-139.36952	305.03329	-943.53851	-261.63138	127.64029	-997.54327	-311.33688	118.41360	-955.34943	-151.99574	30.56771	-1053.96716	96.12672	1669.37549																																	 
151	1.500	-1094.11279	182.52823	1597.56458	-962.15643	168.72148	1609.47034	-1101.69995	49.75017	1572.94434	-971.24597	41.68572	1583.89490	-1035.40137	0.92960	1409.26111	-1025.98108	-32.82601	1094.20349	-1027.95105	120.45686	1330.65515	-1023.63373	166.49852	1166.82263	-933.90479	-56.12696	1234.76160	-1187.56165	79.13061	1361.11975	-1248.31677	45.51782	1161.07605	-1254.17798	32.68089	1037.49304	-1246.96899	38.70728	906.90295	-1210.31653	37.96398	789.89209	-1262.12878	16.45572	795.25690	-1246.06091	14.99297	711.11566	-870.48553	73.43876	1358.59070	-797.95276	102.80362	1137.76563	-788.61639	137.87003	1029.89539	-794.94727	182.98004	900.66333	-838.60974	228.27998	815.81061	-791.78711	204.19489	802.79688	-806.50323	244.27882	742.53204	-1126.21545	144.01741	932.29004	-891.00806	120.41644	926.00861	-1094.77966	-23.61592	956.58051	-944.69037	-34.53051	962.13049	-1169.11182	137.52817	634.58734	-1122.87524	179.06764	463.59161	-1127.65491	172.67270	270.60120	-1088.25342	205.20499	63.28370	-1052.66309	167.45230	28.66229	-1058.32275	357.72531	33.36652	-857.65356	19.80637	635.65912	-887.09827	-0.82763	456.56592	-892.16583	-129.65607	307.84143	-943.69366	-255.66420	133.48627	-998.43304	-304.62433	126.28429	-955.44995	-150.96506	30.69451	-1054.74780	105.14397	1670.77820																																	 
152	1.510	-1094.80542	191.27368	1598.62756	-962.89941	177.23660	1610.66760	-1102.60779	58.39848	1574.48694	-972.18604	50.27054	1585.59436	-1036.43665	9.24882	1410.73889	-1026.55103	-24.25641	1095.61230	-1028.59534	128.91260	1332.23035	-1024.19641	175.30252	1168.50635	-934.60382	-47.67827	1236.26062	-1188.15112	88.14799	1362.81396	-1248.96875	56.35495	1162.64221	-1254.93982	44.67668	1038.97327	-1247.50635	51.60564	908.46185	-1211.02905	51.42388	791.47400	-1262.69531	30.29351	796.37805	-1246.33411	28.30260	711.59326	-871.32764	81.28894	1360.52380	-798.90936	109.69463	1139.49561	-789.56488	144.17390	1031.42322	-795.30670	188.27542	901.83429	-838.61017	233.13329	816.49286	-791.89960	208.66353	803.79993	-806.16266	248.11575	743.03162	-1127.31470	152.88637	934.33514	-892.00079	129.23090	927.37549	-1095.06592	-14.74883	958.45209	-945.10687	-25.35072	963.39447	-1169.43970	144.49695	636.05383	-1123.58020	183.94034	464.54483	-1128.13818	175.23483	270.96185	-1088.23547	205.49860	63.35850	-1052.64075	167.50157	28.70698	-1058.30286	357.97116	33.05175	-857.54565	31.38659	635.97888	-885.63257	13.40304	456.51666	-891.53320	-119.04852	310.72778	-943.90210	-248.71516	139.54648	-999.47363	-296.87247	134.64503	-955.64301	-149.77602	30.83769	-1055.65039	114.09662	1672.12610																																	 
153	1.520	-1095.53308	199.84232	1599.64026	-963.57642	185.57442	1611.76770	-1103.53162	66.92828	1575.83948	-973.13361	58.59349	1587.08911	-1037.45337	17.51983	1412.03455	-1027.32910	-15.66973	1096.90588	-1029.18713	137.32117	1333.72070	-1024.71399	183.88342	1170.12781	-935.06549	-39.23884	1237.78003	-1188.69421	97.05045	1364.46021	-1249.68201	67.22700	1164.21680	-1255.67883	56.69426	1040.48291	-1248.26929	64.52068	909.75208	-1211.83765	65.27914	793.02313	-1263.60889	44.68694	797.80176	-1247.30115	43.57264	713.66418	-872.15070	89.22281	1362.41772	-799.58459	116.50168	1141.21448	-790.40399	150.34335	1032.98950	-795.71564	193.43686	903.09216	-838.48010	237.92012	817.16803	-791.86908	213.07344	804.85950	-805.84955	252.04131	743.55542	-1128.53442	161.56841	936.18884	-893.28522	138.51227	929.04889	-1095.61133	-5.80372	960.09277	-945.82086	-16.36828	964.68121	-1170.45789	150.92902	637.20453	-1124.45496	188.25226	465.07129	-1128.50769	177.52827	271.25293	-1088.12305	205.72656	63.46189	-1052.49597	167.56621	28.77476	-1058.13745	358.22495	32.74128	-857.31097	43.39058	636.19110	-883.87347	28.39097	456.30112	-890.73029	-107.46979	313.56387	-944.06329	-240.72353	145.78375	-1000.48950	-287.78674	143.24933	-956.15637	-148.62076	30.90791	-1056.41650	122.94354	1673.43494																																	 
